<svg xmlns="http://www.w3.org/2000/svg" viewBox="0 0 100 140">
<!-- face_grin: dot eyes with a highlight, blush, and a big open smile with a tongue. 5 nodes. -->
<g id="face">
<path fill="#1b1212" d="M35.5 40a3.5 4.5 0 1 0 7 0a3.5 4.5 0 1 0 -7 0M57.5 40a3.5 4.5 0 1 0 7 0a3.5 4.5 0 1 0 -7 0"/>
<path fill="#ffffff" d="M39.3 38.4a1.3 1.3 0 1 0 2.6 0a1.3 1.3 0 1 0 -2.6 0M61.3 38.4a1.3 1.3 0 1 0 2.6 0a1.3 1.3 0 1 0 -2.6 0"/>
<path fill="#ff4d7d" fill-opacity="0.4" d="M25 48a4.2 4.2 0 1 0 8.4 0a4.2 4.2 0 1 0 -8.4 0M66.6 48a4.2 4.2 0 1 0 8.4 0a4.2 4.2 0 1 0 -8.4 0"/>
<path fill="#1b1212" d="M42 49Q50 51 58 49Q57 58 50 58Q43 58 42 49Z"/>
<path fill="#ff6f8f" d="M46 56Q50 52.6 54 56Q50 57.6 46 56Z"/>
</g>
</svg>
